<svg xmlns="http://www.w3.org/2000/svg" viewBox="0 0 512 512">
  <rect width="512" height="512" rx="64" fill="#111111"/>
  <rect x="48" y="48" width="416" height="416" rx="40" fill="#161616" stroke="#2a2a2a" stroke-width="2"/>
  <rect x="156" y="170" width="200" height="172" rx="12" fill="#0a0f08"/>
  <g fill="#c8ffc8">
    <rect x="208" y="220" width="96" height="8"/>
    <rect x="200" y="232" width="112" height="8"/>
    <rect x="192" y="244" width="16" height="56"/>
    <rect x="304" y="244" width="16" height="56"/>
    <rect x="200" y="304" width="112" height="8"/>
    <rect x="208" y="316" width="96" height="8"/>
    <rect x="220" y="260" width="12" height="12"/>
    <rect x="280" y="260" width="12" height="12"/>
  </g>
  <g fill="#c8a040">
    <rect x="80" y="80" width="40" height="40" rx="6"/>
    <rect x="392" y="80" width="40" height="40" rx="6"/>
    <rect x="80" y="392" width="40" height="40" rx="6"/>
    <rect x="392" y="392" width="40" height="40" rx="6"/>
  </g>
</svg>
